<svg width="135" height="118" viewBox="0 0 135 118" fill="none" xmlns="http://www.w3.org/2000/svg">
<circle cx="43" cy="43" r="43" fill="url(#paint0_linear_7_26)"/>
<path d="M125.25 29.5H86.25V44.125H66.75V29.5H27.75C25.1641 29.5 22.6842 30.5272 20.8557 32.3557C19.0272 34.1842 18 36.6641 18 39.25L18 107.5C18 110.086 19.0272 112.566 20.8557 114.394C22.6842 116.223 25.1641 117.25 27.75 117.25H125.25C127.836 117.25 130.316 116.223 132.144 114.394C133.973 112.566 135 110.086 135 107.5V39.25C135 36.6641 133.973 34.1842 132.144 32.3557C130.316 30.5272 127.836 29.5 125.25 29.5ZM57 53.875C59.5859 53.875 62.0658 54.9022 63.8943 56.7307C65.7228 58.5592 66.75 61.0391 66.75 63.625C66.75 66.2109 65.7228 68.6908 63.8943 70.5193C62.0658 72.3478 59.5859 73.375 57 73.375C54.4141 73.375 51.9342 72.3478 50.1057 70.5193C48.2772 68.6908 47.25 66.2109 47.25 63.625C47.25 61.0391 48.2772 58.5592 50.1057 56.7307C51.9342 54.9022 54.4141 53.875 57 53.875ZM76.5 92.875H37.5V88C37.5 81.5162 50.5162 78.25 57 78.25C63.4838 78.25 76.5 81.5162 76.5 88V92.875ZM115.5 97.75H86.25V88H115.5V97.75ZM115.5 78.25H86.25V68.5H115.5V78.25ZM115.5 58.75H86.25V49H115.5V58.75ZM81.375 39.25H71.625V19.75H81.375V39.25Z" fill="white"/>
<defs>
<linearGradient id="paint0_linear_7_26" x1="-2.14231e-06" y1="5.95125" x2="90.7428" y2="11.6035" gradientUnits="userSpaceOnUse">
<stop stop-color="#4D9ED3"/>
<stop offset="1" stop-color="#173446"/>
</linearGradient>
</defs>
</svg>
