<svg width="144" height="102" viewBox="0 0 144 102" fill="none" xmlns="http://www.w3.org/2000/svg">
<circle cx="77" cy="43" r="43" fill="url(#paint0_linear_7_28)"/>
<path d="M114 90V102H42V90C42 90 42 66 78 66C114 66 114 90 114 90ZM96 36C96 32.4399 94.9443 28.9598 92.9664 25.9997C90.9886 23.0397 88.1774 20.7326 84.8883 19.3702C81.5992 18.0078 77.98 17.6513 74.4884 18.3459C70.9967 19.0404 67.7894 20.7547 65.2721 23.2721C62.7547 25.7894 61.0404 28.9967 60.3459 32.4884C59.6513 35.98 60.0078 39.5992 61.3702 42.8883C62.7325 46.1774 65.0396 48.9886 67.9997 50.9665C70.9598 52.9443 74.4399 54 78 54C82.7739 54 87.3523 52.1036 90.7279 48.7279C94.1036 45.3523 96 40.7739 96 36ZM115.2 66.36C118.48 69.3858 121.124 73.0346 122.978 77.0935C124.833 81.1523 125.86 85.5399 126 90V102H144V90C144 90 144 69.3 115.2 66.36ZM108 18C106.187 18.0011 104.386 18.2845 102.66 18.84C106.17 23.8738 108.052 29.8631 108.052 36C108.052 42.1369 106.17 48.1262 102.66 53.16C104.386 53.7155 106.187 53.9989 108 54C112.774 54 117.352 52.1036 120.728 48.7279C124.104 45.3523 126 40.7739 126 36C126 31.2261 124.104 26.6477 120.728 23.2721C117.352 19.8964 112.774 18 108 18ZM48 48H30V30H18V48H0V60H18V78H30V60H48V48Z" fill="white"/>
<defs>
<linearGradient id="paint0_linear_7_28" x1="34" y1="5.95125" x2="124.743" y2="11.6035" gradientUnits="userSpaceOnUse">
<stop stop-color="#4D9ED3"/>
<stop offset="1" stop-color="#173446"/>
</linearGradient>
</defs>
</svg>
