<svg width="112" height="120" viewBox="0 0 112 120" fill="none" xmlns="http://www.w3.org/2000/svg">
<circle cx="69" cy="77" r="43" fill="url(#paint0_linear_7_29)"/>
<path d="M43.875 82.875C43.875 88.2375 45.3375 93.21 47.8238 97.5H9.75C4.33875 97.5 0 93.1613 0 87.75V9.75C0 4.3875 4.33875 0 9.75 0H14.625V34.125L26.8125 26.8125L39 34.125V0H68.25C73.6125 0 78 4.33875 78 9.75V54.0638C76.3912 53.82 74.7825 53.625 73.125 53.625C56.9888 53.625 43.875 66.7388 43.875 82.875ZM78 78V63.375H68.25V78H53.625V87.75H68.25V102.375H78V87.75H92.625V78H78Z" fill="white"/>
<defs>
<linearGradient id="paint0_linear_7_29" x1="26" y1="39.9513" x2="116.743" y2="45.6035" gradientUnits="userSpaceOnUse">
<stop stop-color="#4D9ED3"/>
<stop offset="1" stop-color="#173446"/>
</linearGradient>
</defs>
</svg>
