<svg width="279" height="632" viewBox="0 0 279 632" fill="none" xmlns="http://www.w3.org/2000/svg">
<g opacity="0.2">
<mask id="path-1-inside-1_11_1270" fill="white">
<path fillRule="evenodd" clipRule="evenodd" d="M210.216 12.041C213.727 10.2999 218.408 12.3192 216.455 16.922C214.364 21.8508 206.631 21.9117 202.263 21.814C202.7 21.7911 204.108 17.2713 204.59 16.5883C206.011 14.5735 208.057 13.1133 210.216 12.041ZM169.787 101.848C169.686 101.948 168.547 102.909 169.787 101.848ZM214.297 34.925C216.396 36.514 216.495 39.3214 214.779 41.2225C212.734 43.4858 209.004 43.4053 206.219 43.1863C204.96 43.0871 198.234 42.5571 199.829 41.4663C199.706 41.5122 199.45 41.6237 199.176 41.7751C199.028 42.309 198.873 42.8409 198.711 43.3705C198.751 43.3934 198.785 43.418 198.827 43.4407C198.781 43.4209 198.749 43.3994 198.709 43.3793C197.088 48.6725 194.783 53.713 191.766 58.429C192.894 57.9886 194.063 57.655 195.248 57.5062C198.757 57.0649 206.137 59.7617 202.21 64.3905C198.444 68.828 192.587 64.0723 188.317 63.4182C184.171 69.1466 179.6 74.6368 174.811 79.9436C175.104 80.0345 175.361 80.2239 175.508 80.5189C177.429 79.5531 179.431 78.1717 181.209 77.7971C183.774 77.2573 189.033 76.9282 190.97 79.2007C193.353 81.995 190.796 84.267 187.979 84.8046C183.894 85.5842 178.549 83.6106 174.619 82.2773C174.17 82.3562 173.679 82.2263 173.386 81.8703C173.299 81.8422 173.212 81.8145 173.128 81.7876C168.277 87.0686 163.242 92.1754 158.237 97.1704C158.29 97.1676 158.343 97.1643 158.399 97.1614C159.704 96.3132 161.104 95.617 162.621 95.252C166.132 94.403 170.261 94.3968 173.108 96.9103C175.944 99.4131 176.946 103.792 174.01 106.606C168.132 112.237 159.483 99.4078 156.52 98.8736C151.433 103.896 146.056 108.59 140.593 113.188C141.213 113.001 141.849 112.863 142.507 112.801C147.861 112.291 160.424 118.785 153.85 125.184C148.122 130.76 141.5 120.036 136.887 116.287C131.74 120.573 126.565 124.83 121.535 129.252C124.278 128.53 126.928 128.422 129.867 129.3C132.908 130.211 137.815 132.483 135.89 136.551C133.932 140.688 128.039 138.809 124.97 137.497C123.296 136.782 119.941 134.366 116.994 133.35C108.967 140.855 102.013 149.121 96.7473 158.857C93.4597 164.936 90.9639 171.43 89.2062 178.104C88.0842 182.364 85.8741 189.518 86.313 195.062C84.2132 183.966 88.027 170.637 92.133 160.717C95.9084 151.594 101.556 143.584 108.169 136.374C106.513 131.434 92.5551 124.315 100.904 119.72C105.337 117.291 109.875 121.316 110.841 125.581C111.505 128.511 110.49 132.195 109.412 135.04C111.493 132.842 113.655 130.715 115.884 128.658C118.963 125.815 122.117 123.055 125.3 120.329C120.059 115.453 115.104 101.509 122.136 99.224C132.519 95.86 127.511 114.887 126.785 118.453C126.579 118.465 126.419 118.404 126.301 118.272C126.359 118.598 126.427 118.947 126.508 119.299C132.602 114.11 138.785 109.022 144.765 103.709C144.227 103.315 143.371 101.809 142.699 101.008C141.181 99.2013 139.729 97.3142 138.669 95.2004C136.993 91.8602 135.378 86.5317 139.825 84.5642C144.662 82.4206 146.956 88.447 146.988 92.0427C147.01 94.5295 146.325 96.8922 145.967 99.33C145.856 100.09 146.283 103.517 145.238 102.043C145.287 102.587 145.294 102.98 145.269 103.259C146.343 102.301 147.408 101.332 148.466 100.356C148.418 100.232 148.381 100.098 148.373 99.9424C148.317 98.8705 149.406 98.457 150.17 98.7706C151.567 97.4559 152.95 96.1247 154.309 94.7671C157.188 91.8908 160.109 88.9324 163.01 85.9111C162.381 85.3762 162.632 84.635 162.044 84.0671C161.457 83.5005 160.3 83.1875 159.61 82.6613C157.873 81.3369 156.434 79.4069 155.393 77.5073C153.675 74.3686 151.455 67.7836 156.481 66.2846C161.66 64.7372 164.286 71.0757 164.617 75.0393C164.681 75.8072 164.097 82.7266 163.651 85.2393C169.019 79.6243 174.299 73.7988 179.083 67.8722C177.633 67.8597 173.525 64.9206 172.695 64.1185C170.669 62.162 167.448 57.8383 171.004 55.5475C174.165 53.5158 178.058 56.4543 179.408 59.3114C179.63 59.7818 180.411 64.1612 180.471 66.1263C182.451 63.6131 184.339 61.0851 186.097 58.5491C187.269 56.8631 188.364 55.1325 189.389 53.3652C189.142 53.227 188.911 52.9858 188.692 52.6859C183.422 51.8027 176.707 43.6626 182.899 40.8261C185.847 39.4773 189.042 42.2567 190.484 44.5329C190.78 44.9986 191.258 47.3403 191.647 49.1874C194.596 43.3329 196.85 37.1353 198.566 30.7812C198.108 30.6686 197.719 30.3217 197.668 29.7247C195.11 28.2814 193.09 27.0795 191.306 24.3024C190.197 22.5775 188.201 18.6363 191.462 17.6769C195.705 16.4286 198.367 22.8456 198.713 26.0068C198.753 26.3737 198.751 27.441 198.737 28.4191C198.884 28.3991 199.033 28.4013 199.179 28.4268C200.155 24.4923 200.935 20.5072 201.556 16.5155C199.24 15.7785 198.846 3.73334 200.389 2.01744C203.838 -1.82467 206.266 3.72167 206.081 6.65378C205.862 10.111 204.278 13.2567 202.393 16.0486C202.191 16.3443 202.249 16.3299 202.197 15.9182C202.168 16.1217 202.099 16.2719 201.997 16.3808C202.093 18.2005 202.281 20.0635 202.19 21.6739C201.926 26.2855 201.382 30.9241 200.592 35.4767C200.4 36.5839 200.18 37.6821 199.933 38.7708C201.795 37.1993 204.306 35.8027 205.288 35.3658C207.838 34.2331 211.766 33.0095 214.297 34.925ZM85.8959 194.624C86.019 196.106 86.3844 197.458 87.1039 198.566C86.5758 197.3 86.1796 195.981 85.8959 194.624Z"/>
</mask>
<path fillRule="evenodd" clipRule="evenodd" d="M210.216 12.041C213.727 10.2999 218.408 12.3192 216.455 16.922C214.364 21.8508 206.631 21.9117 202.263 21.814C202.7 21.7911 204.108 17.2713 204.59 16.5883C206.011 14.5735 208.057 13.1133 210.216 12.041ZM169.787 101.848C169.686 101.948 168.547 102.909 169.787 101.848ZM214.297 34.925C216.396 36.514 216.495 39.3214 214.779 41.2225C212.734 43.4858 209.004 43.4053 206.219 43.1863C204.96 43.0871 198.234 42.5571 199.829 41.4663C199.706 41.5122 199.45 41.6237 199.176 41.7751C199.028 42.309 198.873 42.8409 198.711 43.3705C198.751 43.3934 198.785 43.418 198.827 43.4407C198.781 43.4209 198.749 43.3994 198.709 43.3793C197.088 48.6725 194.783 53.713 191.766 58.429C192.894 57.9886 194.063 57.655 195.248 57.5062C198.757 57.0649 206.137 59.7617 202.21 64.3905C198.444 68.828 192.587 64.0723 188.317 63.4182C184.171 69.1466 179.6 74.6368 174.811 79.9436C175.104 80.0345 175.361 80.2239 175.508 80.5189C177.429 79.5531 179.431 78.1717 181.209 77.7971C183.774 77.2573 189.033 76.9282 190.97 79.2007C193.353 81.995 190.796 84.267 187.979 84.8046C183.894 85.5842 178.549 83.6106 174.619 82.2773C174.17 82.3562 173.679 82.2263 173.386 81.8703C173.299 81.8422 173.212 81.8145 173.128 81.7876C168.277 87.0686 163.242 92.1754 158.237 97.1704C158.29 97.1676 158.343 97.1643 158.399 97.1614C159.704 96.3132 161.104 95.617 162.621 95.252C166.132 94.403 170.261 94.3968 173.108 96.9103C175.944 99.4131 176.946 103.792 174.01 106.606C168.132 112.237 159.483 99.4078 156.52 98.8736C151.433 103.896 146.056 108.59 140.593 113.188C141.213 113.001 141.849 112.863 142.507 112.801C147.861 112.291 160.424 118.785 153.85 125.184C148.122 130.76 141.5 120.036 136.887 116.287C131.74 120.573 126.565 124.83 121.535 129.252C124.278 128.53 126.928 128.422 129.867 129.3C132.908 130.211 137.815 132.483 135.89 136.551C133.932 140.688 128.039 138.809 124.97 137.497C123.296 136.782 119.941 134.366 116.994 133.35C108.967 140.855 102.013 149.121 96.7473 158.857C93.4597 164.936 90.9639 171.43 89.2062 178.104C88.0842 182.364 85.8741 189.518 86.313 195.062C84.2132 183.966 88.027 170.637 92.133 160.717C95.9084 151.594 101.556 143.584 108.169 136.374C106.513 131.434 92.5551 124.315 100.904 119.72C105.337 117.291 109.875 121.316 110.841 125.581C111.505 128.511 110.49 132.195 109.412 135.04C111.493 132.842 113.655 130.715 115.884 128.658C118.963 125.815 122.117 123.055 125.3 120.329C120.059 115.453 115.104 101.509 122.136 99.224C132.519 95.86 127.511 114.887 126.785 118.453C126.579 118.465 126.419 118.404 126.301 118.272C126.359 118.598 126.427 118.947 126.508 119.299C132.602 114.11 138.785 109.022 144.765 103.709C144.227 103.315 143.371 101.809 142.699 101.008C141.181 99.2013 139.729 97.3142 138.669 95.2004C136.993 91.8602 135.378 86.5317 139.825 84.5642C144.662 82.4206 146.956 88.447 146.988 92.0427C147.01 94.5295 146.325 96.8922 145.967 99.33C145.856 100.09 146.283 103.517 145.238 102.043C145.287 102.587 145.294 102.98 145.269 103.259C146.343 102.301 147.408 101.332 148.466 100.356C148.418 100.232 148.381 100.098 148.373 99.9424C148.317 98.8705 149.406 98.457 150.17 98.7706C151.567 97.4559 152.95 96.1247 154.309 94.7671C157.188 91.8908 160.109 88.9324 163.01 85.9111C162.381 85.3762 162.632 84.635 162.044 84.0671C161.457 83.5005 160.3 83.1875 159.61 82.6613C157.873 81.3369 156.434 79.4069 155.393 77.5073C153.675 74.3686 151.455 67.7836 156.481 66.2846C161.66 64.7372 164.286 71.0757 164.617 75.0393C164.681 75.8072 164.097 82.7266 163.651 85.2393C169.019 79.6243 174.299 73.7988 179.083 67.8722C177.633 67.8597 173.525 64.9206 172.695 64.1185C170.669 62.162 167.448 57.8383 171.004 55.5475C174.165 53.5158 178.058 56.4543 179.408 59.3114C179.63 59.7818 180.411 64.1612 180.471 66.1263C182.451 63.6131 184.339 61.0851 186.097 58.5491C187.269 56.8631 188.364 55.1325 189.389 53.3652C189.142 53.227 188.911 52.9858 188.692 52.6859C183.422 51.8027 176.707 43.6626 182.899 40.8261C185.847 39.4773 189.042 42.2567 190.484 44.5329C190.78 44.9986 191.258 47.3403 191.647 49.1874C194.596 43.3329 196.85 37.1353 198.566 30.7812C198.108 30.6686 197.719 30.3217 197.668 29.7247C195.11 28.2814 193.09 27.0795 191.306 24.3024C190.197 22.5775 188.201 18.6363 191.462 17.6769C195.705 16.4286 198.367 22.8456 198.713 26.0068C198.753 26.3737 198.751 27.441 198.737 28.4191C198.884 28.3991 199.033 28.4013 199.179 28.4268C200.155 24.4923 200.935 20.5072 201.556 16.5155C199.24 15.7785 198.846 3.73334 200.389 2.01744C203.838 -1.82467 206.266 3.72167 206.081 6.65378C205.862 10.111 204.278 13.2567 202.393 16.0486C202.191 16.3443 202.249 16.3299 202.197 15.9182C202.168 16.1217 202.099 16.2719 201.997 16.3808C202.093 18.2005 202.281 20.0635 202.19 21.6739C201.926 26.2855 201.382 30.9241 200.592 35.4767C200.4 36.5839 200.18 37.6821 199.933 38.7708C201.795 37.1993 204.306 35.8027 205.288 35.3658C207.838 34.2331 211.766 33.0095 214.297 34.925ZM85.8959 194.624C86.019 196.106 86.3844 197.458 87.1039 198.566C86.5758 197.3 86.1796 195.981 85.8959 194.624Z" stroke="#C1DEE2" strokeWidth="2" mask="url(#path-1-inside-1_11_1270)"/>
</g>
<path fillRule="evenodd" clipRule="evenodd" d="M178.223 163.04C182.425 157.048 190.224 141.83 196.138 139.689C199.948 138.31 198.837 152.575 198.884 155.296C199.067 165.819 198.043 176.276 196.778 186.712C194.498 205.532 187.045 222.293 176.822 238.311C171.562 246.553 165.391 254.895 156.845 260.038C152.912 262.406 148.179 262.802 144.294 264.843C139.769 267.218 142.233 265.298 140.194 270.013C137.363 276.558 136.457 285.003 135.147 291.987C129.132 324.05 114.568 493.54 117.093 526.153C117.317 529.044 113.287 529.735 113.085 526.206C112.016 507.495 121.27 377.917 125.94 335.542C130.609 293.166 135.334 255.73 140.071 241.069C145.819 223.283 156.199 201.893 164.84 185.307C168.854 177.601 173.229 170.161 178.223 163.04Z" fill="#69A1AC"/>
<path fillRule="evenodd" clipRule="evenodd" d="M209.414 370.873C220.349 362.845 232.186 377.996 222.29 386.026C216.82 390.464 211.101 388.885 207.882 385.186C205.792 387.734 203.836 390.398 201.956 392.648C196.229 399.504 190.817 406.523 185.644 413.707C174.898 428.63 165.689 444.396 156.06 459.874C146.558 475.149 137.132 490.503 128.519 506.166C121.223 519.436 111.498 535.047 109 549.595C112.79 518.742 127.172 489.086 144.298 461.886C161.285 434.909 180.779 405.448 207.081 384.159C204.404 380.222 204.33 374.603 209.414 370.873Z" fill="#C1DEE2"/>
<path fillRule="evenodd" clipRule="evenodd" d="M1.9132 295.626C8.03244 296.823 18.0312 310.665 23.0753 315.94C29.0699 322.207 34.5084 328.888 39.6349 335.887C50.6711 350.953 60.5411 366.971 68.9339 383.675C82.6164 410.906 93.5779 438.86 101.533 468.513C106.403 486.665 109.556 505.478 111.424 524.16C111.777 527.684 115.471 554.848 110.148 555.58C105.361 556.24 106.84 534.954 106.609 532.058C103.998 499.393 96.1772 467.61 85.2985 436.821C82.929 430.114 80.7276 421.899 76.9381 415.864C74.2092 411.516 76.9186 413.032 72.1228 411.387C68.0049 409.974 63.3131 410.319 59.0963 408.589C49.9356 404.832 42.6006 397.539 36.1709 390.203C23.6758 375.947 13.774 360.523 8.61264 342.256C5.74947 332.127 3.11836 321.939 1.65826 311.497C1.28056 308.798 -2.02816 294.855 1.9132 295.626Z" fill="#69A1AC"/>
<path fillRule="evenodd" clipRule="evenodd" d="M26.0614 65.3113C49.1113 105.286 68.0528 149.197 80.2834 193.672C87.6937 220.618 92.876 248.27 98.025 275.722C105.997 318.227 113.538 360.73 115.683 403.99C117.841 447.502 122.108 497.687 107.861 539.595C114.978 497.047 108.202 451.758 107.002 408.945C106.429 388.507 104.768 368.269 102.588 347.95C100.473 328.24 97.0184 308.624 93.8009 289.069C92.2336 279.545 90.5876 270.036 88.9118 260.532C88.4115 257.696 88.2002 249.282 86.4014 247.345C84.5911 245.395 75.3543 244.6 72.4544 243.169C66.6149 240.288 61.1221 236.195 56.2609 231.87C46.9418 223.579 38.8347 212.746 32.4359 202.068C17.6307 177.359 11.7116 147.205 12.0108 118.589C12.0682 113.034 21.0034 53.2052 17.4149 52.3813C17.631 52.1283 17.8353 51.867 18.028 51.5953C20.7448 56.1441 23.4108 60.7237 26.0614 65.3113Z" fill="#89C5CC"/>
<path fillRule="evenodd" clipRule="evenodd" d="M274.846 209.483C275.202 208.97 277.517 205.402 276.351 205.63C278.724 205.166 273.087 209.565 279 206.865C276.192 209.517 277.813 212.962 277.85 216.531C277.911 222.325 276.942 228.072 275.851 233.742C274.126 242.704 271.557 251.418 267.828 259.754C259.701 277.921 245.901 295.409 229.518 306.767C221.43 312.375 213.504 314.284 204.28 316.865C198.453 318.496 197.991 321.51 194.898 327.164C188.46 338.94 182.136 350.674 176.457 362.847C169.677 377.383 163.095 391.935 156.886 406.727C135.969 456.553 118.945 508.173 110.005 561.595C109.786 530.114 117.069 497.691 126.255 467.683C132.947 445.821 141.658 424.746 150.95 403.885C153.201 398.831 156.613 392.33 157.57 386.75C158.239 382.841 156.192 379.081 155.255 374.963C151.601 358.925 151.863 340.958 155.071 324.835C158.609 307.056 168.839 298.804 186.145 296.286C192.474 295.365 200.519 295.702 206.322 293.004C212.645 290.065 215.253 280.406 218.849 274.205C228.506 257.549 239.98 241.574 253.155 227.54C256.803 223.654 260.726 220.069 264.888 216.745C267.513 214.649 273.058 212.065 274.846 209.483Z" fill="#89C5CC"/>
<path fillRule="evenodd" clipRule="evenodd" d="M62.0326 520H172.969C177.957 520 182 524.559 182 530.182C182 530.679 181.968 531.175 181.903 531.667L173.329 597.215C170.715 617.197 155.506 632 137.59 632H97.4111C79.4953 632 64.286 617.197 61.6722 597.215L53.0978 531.667C52.3701 526.104 55.7804 520.929 60.7149 520.109C61.1512 520.036 61.5916 520 62.0326 520Z" fill="#DA3C39"/>
</svg>
