<svg width="434" height="495" viewBox="0 0 434 495" fill="none" xmlns="http://www.w3.org/2000/svg">
<path fillRule="evenodd" clipRule="evenodd" d="M299.212 61.8219C306.012 53.8393 310.615 44.0566 309.846 33.0948C307.63 1.51082 263.664 8.4589 255.111 24.3998C246.559 40.3407 247.575 80.7761 258.628 83.6252C263.036 84.7614 272.427 81.9781 281.984 76.2176L275.985 118.657H311.406L299.212 61.8219Z" fill="#F5E0D4"/>
<path fillRule="evenodd" clipRule="evenodd" d="M301.933 68.9316C306.379 49.1536 319.044 35.6716 317.11 26.8317C315.82 20.9384 312.383 17.2735 306.799 15.8372C303.911 4.15337 294.596 -0.816207 278.855 0.928442C255.242 3.54542 240.831 13.3513 247.055 34.9285C252.776 34.9285 259.682 32.8595 269.232 36.4043C272.262 37.5291 274.43 41.0171 275.734 46.8683H280.05C284.238 39.9245 288.368 37.3728 292.44 39.2133C296.511 41.0538 297.436 45.5244 295.216 52.625L297.342 68.9316H301.933Z" fill="#784931"/>
<path fillRule="evenodd" clipRule="evenodd" d="M410.288 303.139H240.564C227.523 303.139 216.951 313.711 216.951 326.753V462.531C216.951 475.573 227.523 486.145 240.564 486.145H410.288C423.329 486.145 433.901 475.573 433.901 462.531V326.753C433.901 313.711 423.329 303.139 410.288 303.139ZM386.674 344.463C389.934 344.463 392.578 347.106 392.578 350.366V438.918C392.578 442.178 389.934 444.821 386.674 444.821H264.178C260.918 444.821 258.275 442.178 258.275 438.918V350.366C258.275 347.106 260.918 344.463 264.178 344.463H386.674Z" fill="#C5CFD6"/>
<path fillRule="evenodd" clipRule="evenodd" d="M70.6065 478.766C99.7043 443.233 119.393 416.891 129.671 399.739C147.271 370.371 161.675 344.239 166.221 334.256C177.061 310.452 141.266 299.305 133.165 310.409C120.904 327.214 94.7174 380.094 54.6067 469.051L70.6065 478.766Z" fill="#CDBFB7"/>
<path fillRule="evenodd" clipRule="evenodd" d="M130.233 468.435L184.386 332.12C195.968 307.271 140.035 290.937 131.523 302.501C112.198 328.756 66.2676 432.326 60.5101 440.149L130.233 468.435Z" fill="#2F6F98"/>
<path fillRule="evenodd" clipRule="evenodd" d="M274.46 441.097C263.912 425.71 225.542 373.942 204.644 352.523C198.638 346.367 192.778 340.46 187.236 334.954C170.762 318.591 137.958 346.095 154.401 360.999C195.351 398.117 255.1 448.226 260.092 452.693C267.089 458.955 281.09 450.768 274.46 441.097Z" fill="#F5E0D4"/>
<path fillRule="evenodd" clipRule="evenodd" d="M271.993 434.147C275.627 437.138 277.991 439.581 279.085 441.476C280.416 443.781 281.974 447.366 283.759 452.231C281.085 453.775 257.055 467.649 211.67 493.852C206.221 488.74 205.372 484.773 209.123 481.948C212.874 479.124 215.969 476.743 218.409 474.803L243.291 440.521C243.77 439.862 244.693 439.715 245.353 440.194C245.364 440.202 245.375 440.21 245.386 440.219L250.556 444.2C255.299 443.786 258.839 442.905 261.175 441.556C263.073 440.46 265.251 438.18 267.71 434.717C268.654 433.387 270.497 433.075 271.826 434.018C271.883 434.059 271.939 434.102 271.993 434.147Z" fill="#E4E4E4"/>
<path fillRule="evenodd" clipRule="evenodd" d="M83.1229 473.455C84.774 477.863 85.5996 481.161 85.5996 483.349C85.5996 486.011 85.1562 489.894 84.2695 495C81.1821 495 53.4351 495 1.02858 495C-1.13455 487.849 0.114132 483.988 4.77464 483.418C9.43516 482.848 13.3067 482.333 16.3893 481.873L55.0789 464.625C55.8234 464.293 56.6959 464.628 57.0278 465.372C57.0335 465.385 57.039 465.398 57.0443 465.411L59.5313 471.444C63.8457 473.457 67.3516 474.463 70.049 474.463C72.2406 474.463 75.2672 473.578 79.1288 471.808C80.6107 471.128 82.3627 471.779 83.042 473.261C83.0713 473.325 83.0983 473.39 83.1229 473.455Z" fill="#E4E4E4"/>
<path fillRule="evenodd" clipRule="evenodd" d="M203.872 338.928C248.881 331.596 279.028 326.582 294.314 323.887C337.886 316.204 350.592 292.757 343.08 241.599H262.799C252.176 244.667 207.785 263.641 129.628 298.522C115.566 305.502 118.185 326.085 120.755 332.866C120.86 333.142 144.566 373.763 191.873 454.728L257.545 412.892L203.748 343.858C202.328 340.997 202.369 339.353 203.872 338.928Z" fill="#4D9ED3"/>
<path fillRule="evenodd" clipRule="evenodd" d="M198.088 222.279L151.01 256.849C138.242 260.294 127.575 264.581 119.008 269.709C116.984 271.553 114.538 275.287 122.931 274.641C131.323 273.996 140.18 273.695 141.338 276.557C142.496 279.42 137.417 282.843 139.758 286.705C141.318 289.28 148.691 282.824 161.876 267.336L208.494 248.005L198.088 222.279ZM378.84 223.472L347.999 223.593C367.042 285.068 377.323 317.686 378.84 321.448C382.255 329.911 375.029 342.801 371.938 349.727C382.004 354.231 380.931 337.551 393.629 343.459C405.218 348.85 414.034 358.62 427.424 350.358C429.07 349.342 430.874 345.518 426.516 342.529C415.657 335.083 400.008 322.051 397.894 317.762C395.01 311.913 388.659 280.483 378.84 223.472Z" fill="#F5E0D4"/>
<path fillRule="evenodd" clipRule="evenodd" d="M291.194 94.0574L278.432 91.8684C231.081 132.772 211.633 211.354 153.593 252.982L167.563 270.298C268.251 257.831 293.208 161.98 291.194 94.0574Z" fill="#A92D2A"/>
<path fillRule="evenodd" clipRule="evenodd" d="M346.826 254.436C295.655 254.436 258.015 254.436 233.906 254.436C228.746 254.436 229.719 246.985 230.464 243.225C239.073 199.834 272.677 153.061 272.677 91.2956L305.248 86.188C332.189 129.517 341.506 182.863 346.826 254.436Z" fill="#DDE3E9"/>
<path fillRule="evenodd" clipRule="evenodd" d="M345.918 128.778C350.649 127.418 354.395 124.247 357.157 119.264C369.062 97.7825 364.762 85.9555 352.04 82.0679C339.317 78.1803 327.971 86.1881 307.701 86.1881C306.598 86.1881 305.589 86.2572 304.672 86.3954L294.475 86.9773C265.22 186.126 257.152 252.276 270.27 285.429H359.147C364.412 297.707 369.451 308.038 374.264 316.422H398.481C400.76 242.728 383.239 180.18 345.918 128.778Z" fill="#DA3C39"/>
<path fillRule="evenodd" clipRule="evenodd" d="M339.793 234.508C336.998 257.895 332.455 274.869 326.164 285.429H359.147C353.004 271.106 346.553 254.132 339.793 234.508Z" fill="black" fillOpacity="0.1"/>
</svg>
